<svg width="38" height="24" viewBox="0 0 38 24" fill="none" xmlns="http://www.w3.org/2000/svg">
<path d="M0 2C0 0.89543 0.89543 0 2 0H36C37.1046 0 38 0.895431 38 2V22C38 23.1046 37.1046 24 36 24H2C0.89543 24 0 23.1046 0 22V2Z" fill="#030517"/>
<path d="M14.875 5C11.0842 5 8 8.08412 8 11.875C8 15.6659 11.0842 18.75 14.875 18.75C18.6658 18.75 21.75 15.6659 21.75 11.875C21.75 8.08412 18.6658 5 14.875 5Z" fill="#FFBC4F"/>
<path d="M23.125 5C19.3342 5 16.25 8.08412 16.25 11.875C16.25 15.6659 19.3342 18.75 23.125 18.75C26.9158 18.75 30 15.6659 30 11.875C30 8.08412 26.9158 5 23.125 5Z" fill="#F56161"/>
<path d="M18.6051 14.3961C18.6051 14.0401 18.3165 13.7516 17.9605 13.7516H16.0508C16.16 14.1994 16.3119 14.6306 16.5021 15.0406H17.9605C18.3165 15.0406 18.6051 14.7521 18.6051 14.3961Z" fill="#FFBC4F"/>
<path d="M18.6058 10.2014C18.6058 9.84552 18.3173 9.55682 17.9613 9.55682H16.3135C16.1558 9.96956 16.0354 10.4006 15.957 10.8459H17.9613C18.3173 10.8459 18.6058 10.5574 18.6058 10.2014Z" fill="#FFBC4F"/>
<path d="M20.3784 12.2988C20.3784 11.9428 20.0897 11.6542 19.7339 11.6542H15.8624C15.8541 11.7934 15.8496 11.9334 15.8496 12.0745C15.8496 12.3686 15.8679 12.6585 15.903 12.9433H19.7339C20.0897 12.9433 20.3784 12.6548 20.3784 12.2988Z" fill="#FFBC4F"/>
</svg>
