<svg width="38" height="24" viewBox="0 0 38 24" fill="none" xmlns="http://www.w3.org/2000/svg">
<path d="M0 2C0 0.89543 0.89543 0 2 0H36C37.1046 0 38 0.895431 38 2V22C38 23.1046 37.1046 24 36 24H2C0.89543 24 0 23.1046 0 22V2Z" fill="#030517"/>
<path d="M5.5 8.24512V8.37281C8.20298 9.02716 10.0795 10.6814 10.8225 12.5818L10.0414 8.92C9.91099 8.41956 9.51587 8.26255 9.04833 8.24519L5.5 8.24512Z" fill="#F7981D"/>
<path d="M14.9395 16.153L16.27 8.24512H18.424L17.0936 16.153H14.9395Z" fill="#FAFAFA"/>
<path d="M24.762 8.44955C24.3351 8.28928 23.6663 8.11765 22.8311 8.11765C20.7022 8.11765 19.2026 9.19045 19.1897 10.7274C19.1779 11.8635 20.2602 12.4971 21.0778 12.8757C21.9162 13.2626 22.1982 13.5108 22.1941 13.8565C22.1889 14.3865 21.5242 14.6289 20.9048 14.6289C20.0428 14.6286 19.5845 14.5089 18.877 14.2138L18.5994 14.0878L18.2969 15.8581C18.8002 16.0789 19.7308 16.2704 20.697 16.2801C22.9612 16.2796 24.4317 15.2201 24.4482 13.5783C24.4564 12.6788 23.8823 11.9943 22.6394 11.4297C21.8863 11.0644 21.4251 10.8203 21.43 10.4495C21.43 10.1209 21.8207 9.76947 22.6638 9.76947C23.3683 9.75839 23.8787 9.91208 24.2765 10.0723L24.4693 10.1636L24.762 8.44955Z" fill="#FAFAFA"/>
<path d="M28.4352 8.24512C27.9191 8.24512 27.5462 8.40376 27.3194 8.91859L24.127 16.1533H26.4077L26.8511 14.9415H29.576L29.8291 16.1533H31.8567L30.0828 8.24534H28.4353L28.4352 8.24512ZM27.4562 13.3592C27.6341 12.9038 28.3142 11.1489 28.3142 11.1489C28.3018 11.1697 28.4912 10.6913 28.5999 10.3945L28.7457 11.076C28.7457 11.076 29.1578 12.9637 29.2443 13.3594H27.4562V13.3592Z" fill="#FAFAFA"/>
<path d="M11.0121 13.6659L10.8224 12.5818C10.4292 11.318 9.20906 9.95071 7.8418 9.26563L9.74499 16.153H12.0262L15.4474 8.24512H13.1667L11.0121 13.6659Z" fill="#FAFAFA"/>
</svg>
